<svg xmlns="http://www.w3.org/2000/svg" width="34" height="27.998" viewBox="0 0 34 27.998"><g transform="translate(-8 -8.002)"><path d="M40.64,8.02l-.625.1a9.874,9.874,0,0,0-4.706,2.062l-6.119,5.04-6.537-1.468.562-.463a1.039,1.039,0,0,0,0-1.668,1.658,1.658,0,0,0-2.026,0l-1.72,1.417-8.5-1.908a2.2,2.2,0,0,0-1.849.4L8,12.46l15.778,7.219L20.957,22a7.2,7.2,0,0,0-.832.8L16.938,26.43l-7.985-.294L8,26.92,14.068,29.7l-2.7,2.83a.439.439,0,0,0,.063.65.711.711,0,0,0,.789.052L15.656,31l3.371,5,.953-.785-.357-6.576,4.4-2.624A7.888,7.888,0,0,0,25,25.33l2.821-2.323L36.587,36l1.124-.925a1.388,1.388,0,0,0,.491-1.523l-2.523-7.618,1.446-1.191a1.039,1.039,0,0,0,0-1.668,1.658,1.658,0,0,0-2.026,0l-.288.237-1.577-4.762,6.119-5.039a7.218,7.218,0,0,0,2.5-3.876l.122-.514a.838.838,0,0,0-.313-.845A1.307,1.307,0,0,0,40.64,8.02Z" transform="translate(0 0)"/></g></svg>