<svg xmlns="http://www.w3.org/2000/svg" width="47.667" height="36" viewBox="0 0 47.667 36"><defs><style>.a{fill:#008081;}</style></defs><path class="a" d="M5.958,21.6H46.177a1.324,1.324,0,0,1,1.047.534,1.923,1.923,0,0,1,.442,1.266V36H41.708V28.8H5.958V36H0V1.8A1.923,1.923,0,0,1,.442.534,1.324,1.324,0,0,1,1.49,0H4.469A1.324,1.324,0,0,1,5.516.534,1.923,1.923,0,0,1,5.958,1.8Zm13.406-9a7.725,7.725,0,0,0-1.746-5.091,5.261,5.261,0,0,0-8.425,0A7.725,7.725,0,0,0,7.448,12.6a7.725,7.725,0,0,0,1.746,5.091,5.261,5.261,0,0,0,8.425,0A7.725,7.725,0,0,0,19.365,12.6Zm28.3,7.2V18a11.588,11.588,0,0,0-2.618-7.636A7.943,7.943,0,0,0,38.729,7.2H22.344a1.324,1.324,0,0,0-1.047.534A1.923,1.923,0,0,0,20.854,9V19.8Z" transform="translate(0 0)"/></svg>