<svg xmlns="http://www.w3.org/2000/svg" width="979" height="324" viewBox="0 0 979 324"><defs><style>.a{fill:#006ce4;}.b,.c{stroke:none;}.c{fill:#707070;}</style></defs><g class="a" transform="translate(-205 -259)"><path class="b" d="M 1149.363037109375 582.500244140625 L 239.6375122070312 582.500244140625 C 234.1580810546875 570.451416015625 229.2626953125 558.0411376953125 225.0862426757812 545.6104736328125 C 220.8297424316406 532.9413452148438 217.2149963378906 519.9391479492188 214.3424987792969 506.9646301269531 C 211.4339904785156 493.8274841308594 209.2143707275391 480.3932495117188 207.7451171875 467.0347290039062 C 206.2554931640625 453.4901123046875 205.500244140625 439.6838684082031 205.500244140625 425.999755859375 C 205.500244140625 411.3748779296875 206.3622436523438 396.6279907226562 208.0624847412109 382.1684875488281 C 209.7378692626953 367.9190063476562 212.2678680419922 353.6028747558594 215.5819854736328 339.6176147460938 C 218.8532409667969 325.8137512207031 222.9669952392578 312.0008544921875 227.8088684082031 298.5628662109375 C 232.5618438720703 285.3717651367188 238.1282501220703 272.2312927246094 244.3560791015625 259.500244140625 L 1144.64453125 259.500244140625 C 1150.872314453125 272.2312927246094 1156.438720703125 285.3717651367188 1161.191772460938 298.5628662109375 C 1166.033569335938 312.0008544921875 1170.147338867188 325.8137512207031 1173.418579101562 339.6176147460938 C 1176.73291015625 353.6028747558594 1179.262817382812 367.9190063476562 1180.938232421875 382.1684875488281 C 1182.638549804688 396.6279907226562 1183.50048828125 411.3748779296875 1183.50048828125 425.999755859375 C 1183.50048828125 439.6838684082031 1182.745239257812 453.489990234375 1181.255493164062 467.0347290039062 C 1179.786376953125 480.3931274414062 1177.566772460938 493.8274841308594 1174.658081054688 506.9646301269531 C 1171.78564453125 519.93896484375 1168.1708984375 532.9413452148438 1163.914306640625 545.6104736328125 C 1159.737915039062 558.0411376953125 1154.842529296875 570.451416015625 1149.363037109375 582.500244140625 Z"/><path class="c" d="M 1149.041015625 582.000244140625 C 1154.4599609375 570.0582275390625 1159.302978515625 557.7657470703125 1163.440307617188 545.4512329101562 C 1167.69140625 532.7988891601562 1171.30126953125 519.813720703125 1174.170043945312 506.8566284179688 C 1177.074584960938 493.7369995117188 1179.291381835938 480.3206176757812 1180.758544921875 466.9801330566406 C 1182.246215820312 453.4534912109375 1183.00048828125 439.6657409667969 1183.00048828125 425.999755859375 C 1183.00048828125 411.3943786621094 1182.1396484375 396.6669921875 1180.441772460938 382.2268676757812 C 1178.768432617188 367.9964904785156 1176.241821289062 353.6994934082031 1172.93212890625 339.7330017089844 C 1169.665161132812 325.9473571777344 1165.556884765625 312.1527404785156 1160.721313476562 298.7323608398438 C 1156.009521484375 285.6555786132812 1150.496704101562 272.6273193359375 1144.33251953125 260.000244140625 L 244.6681213378906 260.000244140625 C 238.5039215087891 272.627197265625 232.9911193847656 285.6554565429688 228.2793731689453 298.7323608398438 C 223.4437408447266 312.1527404785156 219.3354949951172 325.9472351074219 216.0686187744141 339.7328796386719 C 212.7587432861328 353.6994934082031 210.2322387695312 367.9964904785156 208.5589904785156 382.2268676757812 C 206.8611145019531 396.6669921875 206.000244140625 411.3943786621094 206.000244140625 425.999755859375 C 206.000244140625 439.6657409667969 206.7544860839844 453.4534912109375 208.2421112060547 466.9801330566406 C 209.7093658447266 480.3206176757812 211.9259948730469 493.7369995117188 214.8306121826172 506.8566284179688 C 217.6993713378906 519.813720703125 221.3093719482422 532.7988891601562 225.5602416992188 545.4512329101562 C 229.6976165771484 557.7657470703125 234.5406646728516 570.0582275390625 239.9595947265625 582.000244140625 L 1149.041015625 582.000244140625 M 1149.684814453125 583.000244140625 L 239.3157348632812 583.000244140625 C 217.1726226806641 534.4171142578125 205.000244140625 481.4434814453125 205.000244140625 425.999755859375 C 205.000244140625 366.7219848632812 218.9063720703125 310.2842407226562 244.0441131591797 259.000244140625 L 1144.95654296875 259.000244140625 C 1170.09423828125 310.2842407226562 1184.00048828125 366.7219848632812 1184.00048828125 425.999755859375 C 1184.00048828125 481.4434814453125 1171.828002929688 534.4171142578125 1149.684814453125 583.000244140625 Z"/></g></svg>