<svg xmlns="http://www.w3.org/2000/svg" width="46.333" height="37" viewBox="0 0 46.333 37"><defs><style>.a{fill:#707070;}</style></defs><path class="a" d="M97.126,160H92.42v2.467h4.344V189.6H56.223V162.467h4.344V160H55.861a2.394,2.394,0,0,0-2.534,2.232v27.6a2.394,2.394,0,0,0,2.534,2.232H97.126a2.394,2.394,0,0,0,2.534-2.232v-27.6A2.394,2.394,0,0,0,97.126,160Z" transform="translate(-53.326 -155.067)"/><path class="a" d="M213.333,373.333h2.9V375.8h-2.9Z" transform="translate(-204.646 -358.533)"/><path class="a" d="M373.333,373.333h2.9V375.8h-2.9Z" transform="translate(-355.958 -358.533)"/><path class="a" d="M533.333,373.333h2.9V375.8h-2.9Z" transform="translate(-507.271 -358.533)"/><path class="a" d="M693.333,373.333h2.9V375.8h-2.9Z" transform="translate(-658.584 -358.533)"/><path class="a" d="M213.333,506.667h2.9v2.467h-2.9Z" transform="translate(-204.646 -485.7)"/><path class="a" d="M373.333,506.667h2.9v2.467h-2.9Z" transform="translate(-355.958 -485.7)"/><path class="a" d="M533.333,506.667h2.9v2.467h-2.9Z" transform="translate(-507.271 -485.7)"/><path class="a" d="M693.333,506.667h2.9v2.467h-2.9Z" transform="translate(-658.584 -485.7)"/><path class="a" d="M213.333,640h2.9v2.467h-2.9Z" transform="translate(-204.646 -612.867)"/><path class="a" d="M373.333,640h2.9v2.467h-2.9Z" transform="translate(-355.958 -612.867)"/><path class="a" d="M533.333,640h2.9v2.467h-2.9Z" transform="translate(-507.271 -612.867)"/><path class="a" d="M693.333,640h2.9v2.467h-2.9Z" transform="translate(-658.584 -612.867)"/><path class="a" d="M241.448,63.2a1.354,1.354,0,0,0,1.448-1.233v-7.4a1.467,1.467,0,0,0-2.9,0v7.4A1.354,1.354,0,0,0,241.448,63.2Z" transform="translate(-229.864 -53.333)"/><path class="a" d="M668.115,63.2a1.354,1.354,0,0,0,1.448-1.233v-7.4a1.467,1.467,0,0,0-2.9,0v7.4A1.354,1.354,0,0,0,668.115,63.2Z" transform="translate(-633.365 -53.333)"/><path class="a" d="M346.667,160h14.479v2.467H346.667Z" transform="translate(-330.739 -155.067)"/></svg>