<svg xmlns="http://www.w3.org/2000/svg" width="26.229" height="25.333" viewBox="0 0 26.229 25.333"><defs><style>.a{fill:#707070;}</style></defs><path class="a" d="M78.121,160H75.457v1.689h2.459v18.578H54.966V161.689h2.459V160H54.761a1.483,1.483,0,0,0-1.434,1.528v18.9a1.483,1.483,0,0,0,1.434,1.528h23.36a1.483,1.483,0,0,0,1.434-1.528v-18.9A1.483,1.483,0,0,0,78.121,160Z" transform="translate(-53.326 -156.622)"/><path class="a" d="M213.333,373.333h1.639v1.689h-1.639Z" transform="translate(-208.415 -363.2)"/><path class="a" d="M373.333,373.333h1.639v1.689h-1.639Z" transform="translate(-363.497 -363.2)"/><path class="a" d="M533.333,373.333h1.639v1.689h-1.639Z" transform="translate(-518.579 -363.2)"/><path class="a" d="M693.333,373.333h1.639v1.689h-1.639Z" transform="translate(-673.662 -363.2)"/><path class="a" d="M213.333,506.667h1.639v1.689h-1.639Z" transform="translate(-208.415 -492.311)"/><path class="a" d="M373.333,506.667h1.639v1.689h-1.639Z" transform="translate(-363.497 -492.311)"/><path class="a" d="M533.333,506.667h1.639v1.689h-1.639Z" transform="translate(-518.579 -492.311)"/><path class="a" d="M693.333,506.667h1.639v1.689h-1.639Z" transform="translate(-673.662 -492.311)"/><path class="a" d="M213.333,640h1.639v1.689h-1.639Z" transform="translate(-208.415 -621.422)"/><path class="a" d="M373.333,640h1.639v1.689h-1.639Z" transform="translate(-363.497 -621.422)"/><path class="a" d="M533.333,640h1.639v1.689h-1.639Z" transform="translate(-518.579 -621.422)"/><path class="a" d="M693.333,640h1.639v1.689h-1.639Z" transform="translate(-673.662 -621.422)"/><path class="a" d="M240.82,60.089a.832.832,0,0,0,.82-.844V54.178a.82.82,0,1,0-1.639,0v5.067A.832.832,0,0,0,240.82,60.089Z" transform="translate(-234.262 -53.333)"/><path class="a" d="M667.486,60.089a.832.832,0,0,0,.82-.844V54.178a.82.82,0,1,0-1.639,0v5.067A.832.832,0,0,0,667.486,60.089Z" transform="translate(-647.815 -53.333)"/><path class="a" d="M346.667,160h8.2v1.689h-8.2Z" transform="translate(-337.65 -156.622)"/></svg>