<svg xmlns="http://www.w3.org/2000/svg" width="63.694" height="41.6" viewBox="0 0 63.694 41.6"><defs><style>.a{fill:#008081;}</style></defs><g transform="translate(-6.08 -36.48)"><path class="a" d="M68.713,53.12c-.4-.65-4.327-2.313-4.327-2.313.683-.346,1.15-.417,1.15-1.847,0-1.56-.008-2.08-1.07-2.08h-3.6c-.015-.031-.031-.064-.045-.1-2.325-4.974-2.637-6.231-6.1-7.923-4.651-2.266-13.37-2.38-16.789-2.38s-12.138.114-16.785,2.38c-3.471,1.69-3.385,2.56-6.1,7.923a.493.493,0,0,1-.053.1H11.38c-1.054,0-1.062.52-1.062,2.08,0,1.43.467,1.5,1.15,1.847A38.084,38.084,0,0,0,7.142,53.12c-.531.52-1.062,4.16-1.062,10.4S6.611,76,6.611,76H8.2c0,1.82.273,2.08,1.07,2.08H19.88c.8,0,1.062-.26,1.062-2.08h33.97c0,1.82.265,2.08,1.062,2.08H66.855c.531,0,.8-.39.8-2.08h1.592s.531-6.37.531-12.48S69.111,53.77,68.713,53.12ZM20.578,58.962a70,70,0,0,1-7.277.4c-2.71,0-2.8.17-2.994-1.487a9.192,9.192,0,0,1,.068-2.276l.084-.4h.4a18.652,18.652,0,0,1,5.912.881,13.111,13.111,0,0,1,3.993,1.958,1.88,1.88,0,0,1,.711.8Zm32.8,9.36-.587,1.438H23.065s.052-.079-.663-1.453c-.531-1.017.133-1.667,1.182-2.036A44.944,44.944,0,0,1,37.927,63.52c6.369,0,12.428,1.752,14.4,2.751.73.369,1.636.629,1.051,2.059Zm-34.1-17.749q-.643.036-1.287.009c.346-.6.539-1.275.877-1.977,1.062-2.21,2.276-4.711,4.437-5.765,3.124-1.524,9.6-2.21,14.627-2.21s11.5.681,14.627,2.21c2.162,1.054,3.37,3.557,4.437,5.766.341.708.531,1.386.886,1.993-.265.014-.571,0-1.3-.025Zm46.141,7.294c-.284,1.622-.019,1.492-2.861,1.492a70.008,70.008,0,0,1-7.277-.4.553.553,0,0,1-.183-.923,12.555,12.555,0,0,1,3.993-1.958,17.533,17.533,0,0,1,5.983-.87.423.423,0,0,1,.41.39,8.94,8.94,0,0,1-.065,2.271Z" transform="translate(0)"/></g></svg>