<svg xmlns="http://www.w3.org/2000/svg" width="42.919" height="47.819" viewBox="0 0 42.919 47.819"><defs><style>.a{fill:#48aeaf;}</style></defs><g transform="translate(0.025 0.001)"><path class="a" d="M.779,5.427a.785.785,0,0,0,.329.991l1.385.711a.643.643,0,0,0,.89-.366.785.785,0,0,0-.328-.991L1.669,5.061a.607.607,0,0,0-.513-.023.7.7,0,0,0-.377.389ZM6.148,3.674a.653.653,0,0,0,.545-.314.82.82,0,0,0,.088-.677l-.5-1.63A.656.656,0,0,0,5.426.59a.771.771,0,0,0-.415.95l.5,1.63A.68.68,0,0,0,6.148,3.674Zm-5.1,9.269a.611.611,0,0,0,.241-.05l1.454-.625a.776.776,0,0,0,.384-.966.651.651,0,0,0-.867-.428L.812,11.5a.765.765,0,0,0-.419.834A.694.694,0,0,0,1.053,12.943ZM3.635,2.553A.624.624,0,0,0,2.688,2.5a.808.808,0,0,0-.049,1.055L3.662,4.82a.624.624,0,0,0,.947.055A.809.809,0,0,0,4.659,3.82ZM.654,8.222A.752.752,0,0,0,.637,9.716l1.537.042h.017a.754.754,0,0,0,.017-1.494L.671,8.222H.654ZM2.491,15.69a.632.632,0,0,0,.456-.2L4.1,14.3a.809.809,0,0,0,.036-1.056.623.623,0,0,0-.948-.04L2.035,14.394a.808.808,0,0,0-.169.821A.676.676,0,0,0,2.491,15.69ZM8.553,3.237a.7.7,0,0,0,.668-.689L9.344.8A.727.727,0,0,0,8.728,0a.7.7,0,0,0-.721.686L7.884,2.431a.727.727,0,0,0,.616.8l.054,0ZM4.083,11.221a4.679,4.679,0,0,0,2.268,2.762.643.643,0,0,0,.889-.366.785.785,0,0,0-.329-.991,3.247,3.247,0,0,1-1.569-1.917A4.166,4.166,0,0,1,5.477,7.8,3.165,3.165,0,0,1,9.76,5.888a.644.644,0,0,0,.89-.366.785.785,0,0,0-.328-.991c-2.244-1.153-4.962.028-6.058,2.63a5.8,5.8,0,0,0-.18,4.06ZM32.837,23.162a.674.674,0,1,0-1.341,0v1.494a.674.674,0,1,0,1.341,0Zm2.682,0a.674.674,0,1,0-1.341,0v1.494a.674.674,0,1,0,1.341,0Zm-2.682,4.483a.674.674,0,1,0-1.341,0v1.494a.674.674,0,1,0,1.341,0Zm2.682,0a.674.674,0,1,0-1.341,0v1.494a.674.674,0,1,0,1.341,0Zm-2.682,4.483a.674.674,0,1,0-1.341,0v1.494a.674.674,0,1,0,1.341,0Zm2.682,0a.674.674,0,1,0-1.341,0v1.494a.674.674,0,1,0,1.341,0Zm-3.352,3.736a.712.712,0,0,0-.67.747V38.1a.674.674,0,1,0,1.341,0V36.611A.712.712,0,0,0,32.166,35.863Zm2.682,0a.712.712,0,0,0-.67.747V38.1a.674.674,0,1,0,1.341,0V36.611A.712.712,0,0,0,34.848,35.863Zm-23.467-12.7a.674.674,0,1,0-1.341,0v1.494a.674.674,0,1,0,1.341,0Zm-2.682,0a.712.712,0,0,0-.67-.747.712.712,0,0,0-.67.747v1.494a.712.712,0,0,0,.67.747.712.712,0,0,0,.67-.747Zm2.682,4.483a.674.674,0,1,0-1.341,0v1.494a.674.674,0,1,0,1.341,0Zm-2.682,0a.712.712,0,0,0-.67-.747.712.712,0,0,0-.67.747v1.494a.712.712,0,0,0,.67.747.712.712,0,0,0,.67-.747Zm2.682,4.483a.674.674,0,1,0-1.341,0v1.494a.674.674,0,1,0,1.341,0Zm-2.682,0a.712.712,0,0,0-.67-.747.712.712,0,0,0-.67.747v1.494a.712.712,0,0,0,.67.747.712.712,0,0,0,.67-.747Zm2.011,3.736a.712.712,0,0,0-.67.747V38.1a.674.674,0,1,0,1.341,0V36.611A.712.712,0,0,0,10.711,35.863Zm-2.682,0a.712.712,0,0,0-.67.747V38.1a.712.712,0,0,0,.67.747A.712.712,0,0,0,8.7,38.1V36.611A.712.712,0,0,0,8.029,35.863Z" transform="translate(0 0)"/><path class="a" d="M42.911,50.1a14.561,14.561,0,0,0-1.235-4.5,1.155,1.155,0,0,0-2.223,0,14.565,14.565,0,0,0-1.235,4.5,3.722,3.722,0,0,0,1.676,3.482v2.762H38.553V54.417a4.528,4.528,0,0,1-1.006-1.343v3.273H35.871V52.611a1.425,1.425,0,0,0-1.341-1.494H32.518a1.425,1.425,0,0,0-1.341,1.494v3.736H29.5V17.494A1.424,1.424,0,0,0,28.16,16H14.751a1.424,1.424,0,0,0-1.341,1.494V56.347H11.733V52.611a1.425,1.425,0,0,0-1.341-1.494H8.381A1.425,1.425,0,0,0,7.04,52.611v3.736H5.364V53.074a4.528,4.528,0,0,1-1.006,1.343v1.931H3.017V53.585A3.721,3.721,0,0,0,4.693,50.1a14.561,14.561,0,0,0-1.235-4.5,1.222,1.222,0,0,0-1.111-.841,1.222,1.222,0,0,0-1.111.841A14.566,14.566,0,0,0,0,50.1a3.722,3.722,0,0,0,1.676,3.482v2.762H.67a.752.752,0,0,0,0,1.494H42.24a.752.752,0,0,0,0-1.494H41.234V53.585A3.721,3.721,0,0,0,42.911,50.1ZM10.392,56.347H8.381V52.611h2.011ZM22.126,19.736a.674.674,0,1,1,1.341,0V21.23a.674.674,0,1,1-1.341,0Zm0,4.483a.674.674,0,1,1,1.341,0v1.494a.674.674,0,1,1-1.341,0Zm0,4.483a.674.674,0,1,1,1.341,0V30.2a.674.674,0,1,1-1.341,0Zm0,4.483a.674.674,0,1,1,1.341,0v1.494a.674.674,0,1,1-1.341,0Zm0,4.483a.674.674,0,1,1,1.341,0v1.494a.674.674,0,1,1-1.341,0Zm0,4.483a.674.674,0,1,1,1.341,0v1.494a.674.674,0,1,1-1.341,0ZM19.444,19.736a.674.674,0,1,1,1.341,0V21.23a.674.674,0,1,1-1.341,0Zm0,4.483a.674.674,0,1,1,1.341,0v1.494a.674.674,0,1,1-1.341,0Zm0,4.483a.674.674,0,1,1,1.341,0V30.2a.674.674,0,1,1-1.341,0Zm0,4.483a.674.674,0,1,1,1.341,0v1.494a.674.674,0,1,1-1.341,0Zm0,4.483a.674.674,0,1,1,1.341,0v1.494a.674.674,0,1,1-1.341,0Zm0,4.483a.674.674,0,1,1,1.341,0v1.494a.674.674,0,1,1-1.341,0ZM16.762,19.736a.674.674,0,1,1,1.341,0V21.23a.674.674,0,1,1-1.341,0Zm0,4.483a.674.674,0,1,1,1.341,0v1.494a.674.674,0,1,1-1.341,0Zm0,4.483a.674.674,0,1,1,1.341,0V30.2a.674.674,0,1,1-1.341,0Zm0,4.483a.674.674,0,1,1,1.341,0v1.494a.674.674,0,1,1-1.341,0Zm0,4.483a.674.674,0,1,1,1.341,0v1.494a.674.674,0,1,1-1.341,0Zm.67,6.725a.712.712,0,0,1-.67-.747V42.151a.674.674,0,1,1,1.341,0v1.494A.712.712,0,0,1,17.432,44.392Zm7.375,11.955H18.1V48.128a.712.712,0,0,1,.67-.747h5.364a.712.712,0,0,1,.67.747Zm1.341-12.7a.674.674,0,1,1-1.341,0V42.151a.674.674,0,1,1,1.341,0Zm0-4.483a.674.674,0,1,1-1.341,0V37.668a.674.674,0,1,1,1.341,0Zm0-4.483a.674.674,0,1,1-1.341,0V33.185a.674.674,0,1,1,1.341,0Zm0-4.483a.674.674,0,1,1-1.341,0V28.7a.674.674,0,1,1,1.341,0Zm0-4.483a.674.674,0,1,1-1.341,0V24.219a.674.674,0,1,1,1.341,0Zm0-4.483a.674.674,0,1,1-1.341,0V19.736a.674.674,0,1,1,1.341,0ZM34.53,56.347H32.518V52.611H34.53Z" transform="translate(-0.017 -10.023)"/><path class="a" d="M46.2,61.719a2.945,2.945,0,0,1,.663-1.018V45.807a1.642,1.642,0,0,0-1.532-1.691l-6.513-1.437V44.2l6.513,1.408a.194.194,0,0,1,.191.2V63.581q.313-.943.678-1.863ZM20.046,42.679l-6.513,1.437A1.684,1.684,0,0,0,12,45.807V60.7a2.945,2.945,0,0,1,.663,1.018q.364.92.678,1.863V45.807a.194.194,0,0,1,.191-.2L20.046,44.2Z" transform="translate(-7.994 -26.736)"/></g></svg>