<svg xmlns="http://www.w3.org/2000/svg" width="72" height="72" viewBox="0 0 72 72"><defs><style>.a{fill:#008081;}</style></defs><path class="a" d="M68.2,31.151C67.6,13.9,54.19,0,37.966,0H35.814C19.694,0,6.282,13.8,5.577,30.915A6.3,6.3,0,0,0,.89,36.934v7.324a6.384,6.384,0,0,0,6.469,6.289,6.507,6.507,0,0,0,4.895-2.2,40.343,40.343,0,0,0,5.439,12.083c4.93,7.313,11.5,11.419,18.492,11.565l.393.011c7.082,0,13.77-3.971,18.851-11.171.417-.6.822-1.226,1.215-1.856L58.9,58.95a9.381,9.381,0,0,0,9.292-7.391h.058l.081-.765a2.665,2.665,0,0,0,.012-.3,6.308,6.308,0,0,0,4.548-5.974V37.193A6.306,6.306,0,0,0,68.2,31.151Zm-57.049.72a6.663,6.663,0,0,0-1.643-.855c.66-15.053,12.3-27.18,26.3-27.18h2.152c14.094,0,25.747,12.24,26.291,27.416a6.449,6.449,0,0,0-1.551.788C60.913,17.966,51.123,8.719,37.6,8.438h-.521a25.473,25.473,0,0,0-18.226,7.369,28.41,28.41,0,0,0-7.7,16.065Zm43.151,23.3-9.3.124a4.268,4.268,0,0,0-3.749-2.216H37.688a4.147,4.147,0,1,0,0,8.291h3.564a4.267,4.267,0,0,0,3.761-2.25l6.816-.09c-4.339,5.816-9.836,9.124-15.263,9.124h-.312c-5.659-.124-11.086-3.611-15.286-9.844A38.338,38.338,0,0,1,14.684,37.35v-.405l.012-.405c.162-7.391,2.581-13.635,6.989-18.079a21.409,21.409,0,0,1,15.31-6.21h.023c.15,0,.3,0,.474.011,12.694.27,21.57,10.328,21.57,24.446,0,.259,0,.506-.012.776A38.558,38.558,0,0,1,54.306,55.17Zm10.067-4.612a5.516,5.516,0,0,1-5.485,4.556h-.139a43.5,43.5,0,0,0,2.569-6.772,6.506,6.506,0,0,0,3.067,2.126.214.214,0,0,0-.012.09Z" transform="translate(-0.89)"/></svg>