<svg xmlns="http://www.w3.org/2000/svg" width="248.58" height="75.112" viewBox="0 0 248.58 75.112"><defs><style>.a{fill:#7a7a7a;}.b{fill:#e6e6e6;stroke:#000;stroke-linecap:round;stroke-linejoin:round;}</style></defs><g transform="translate(0.5 0.5)"><path class="a" d="M1476.942,771.581c-8.422,0-15.2,2.086-15.2,4.673v42.614c0,2.587,6.78,4.673,15.2,4.673h9.026c-3.355,4.932-10.589,9.686-17.577,14.416,17.972-4.125,31.528-8.618,43.23-14.416h178.149c8.422,0,15.2-2.086,15.2-4.673V776.254c0-2.587-6.78-4.673-15.2-4.673H1476.946Z" transform="translate(-1456.892 -763.346)"/><path class="b" d="M1472.094,763.346c-8.422,0-15.2,2.086-15.2,4.674v42.614c0,2.587,6.78,4.674,15.2,4.674h9.026c-3.356,4.932-10.589,9.686-17.577,14.416,17.973-4.125,31.529-8.618,43.23-14.416h178.145c8.422,0,15.2-2.086,15.2-4.674V768.02c0-2.587-6.78-4.674-15.2-4.674H1472.09Z" transform="translate(-1456.892 -763.346)"/></g></svg>