<svg xmlns="http://www.w3.org/2000/svg" width="70" height="92" viewBox="0 0 70 92"><defs><style>.a{fill:#ffb700;}.b,.c{stroke:none;}.c{fill:#707070;}</style></defs><g class="a" transform="translate(-22 -197)"><path class="b" d="M 45.99990081787109 288.4999084472656 C 37.69074630737305 288.4999084472656 29.57099533081055 286.2424011230469 22.49960899353027 281.96923828125 L 22.49960899353027 204.03076171875 C 29.57096099853516 199.7576141357422 37.69071197509766 197.5001068115234 45.99990081787109 197.5001068115234 C 52.14260864257812 197.5001068115234 58.10129165649414 198.7030334472656 63.71043014526367 201.0754852294922 C 69.12847900390625 203.3671112060547 73.99446868896484 206.6478881835938 78.17325592041016 210.82666015625 C 82.35203552246094 215.0054321289062 85.63279724121094 219.8714294433594 87.92443084716797 225.2894744873047 C 90.29688262939453 230.8986053466797 91.49980926513672 236.8572998046875 91.49980926513672 243 C 91.49980926513672 249.1427154541016 90.29688262939453 255.1013946533203 87.92443084716797 260.7105407714844 C 85.63279724121094 266.1285705566406 82.35203552246094 270.9945678710938 78.17325592041016 275.17333984375 C 73.99446868896484 279.3521423339844 69.12847900390625 282.6329040527344 63.71043014526367 284.9245300292969 C 58.10129165649414 287.2969665527344 52.14260864257812 288.4999084472656 45.99990081787109 288.4999084472656 Z"/><path class="c" d="M 45.99990081787109 287.9999084472656 C 52.0753288269043 287.9999084472656 57.96849060058594 286.8102722167969 63.51565170288086 284.4640197753906 C 68.87409973144531 282.1976013183594 73.68667602539062 278.9528198242188 77.81968688964844 274.8197937011719 C 81.95271301269531 270.686767578125 85.19750213623047 265.8742065429688 87.46391296386719 260.5157775878906 C 89.81016540527344 254.9685821533203 90.99980163574219 249.075439453125 90.99980163574219 243 C 90.99980163574219 236.9245758056641 89.81016540527344 231.0314178466797 87.46391296386719 225.4842529296875 C 85.19750213623047 220.1258087158203 81.95271301269531 215.313232421875 77.81968688964844 211.1802062988281 C 73.68667602539062 207.0471801757812 68.87409973144531 203.8024139404297 63.51565170288086 201.5359954833984 C 57.96849060058594 199.1897430419922 52.0753288269043 198.0001068115234 45.99990081787109 198.0001068115234 C 37.87627792358398 198.0001068115234 29.93604469299316 200.1816711425781 22.99960327148438 204.3138427734375 L 22.99960327148438 281.6861572265625 C 29.93609046936035 285.818359375 37.87632751464844 287.9999084472656 45.99990081787109 287.9999084472656 M 45.99990081787109 288.9999084472656 C 37.20484161376953 288.9999084472656 28.98670196533203 286.5318603515625 21.99960327148438 282.2502746582031 L 21.99960327148438 203.7497253417969 C 28.98670196533203 199.4681243896484 37.20484161376953 197.0001068115234 45.99990081787109 197.0001068115234 C 71.40510559082031 197.0001068115234 91.99980163574219 217.5948028564453 91.99980163574219 243 C 91.99980163574219 268.4052124023438 71.40510559082031 288.9999084472656 45.99990081787109 288.9999084472656 Z"/></g></svg>