<svg xmlns="http://www.w3.org/2000/svg" width="66" height="41.103" viewBox="0 0 66 41.103"><defs><style>.a{fill:#008081;}</style></defs><g transform="translate(0.013 -0.914)"><path class="a" d="M64.788,1.661Q66.86,3.186,65.353,6a13.841,13.841,0,0,1-5.086,5.045l-7.582,4.722L60.22,36.18q.235.557-.565.968l-6.028,2.816a1.912,1.912,0,0,1-.895.176,1.637,1.637,0,0,1-.33-.029,1.38,1.38,0,0,1-.989-.469l-13.138-14.9-12.2,7.6,2.5,5.69q.235.5-.377.909l-4.521,2.816a2.019,2.019,0,0,1-1.083.264H22.5a2.12,2.12,0,0,1-1.13-.381l-8.9-7.391L.6,28.7a.9.9,0,0,1-.612-.675.82.82,0,0,1,.424-.733l4.521-2.845a2.019,2.019,0,0,1,1.083-.264,1.536,1.536,0,0,1,.377.029l9.136,1.554,12.2-7.6L3.806,9.99a1.149,1.149,0,0,1-.8-.7.734.734,0,0,1,.424-.792L9.457,4.74a1.979,1.979,0,0,1,1.413-.235L42.184,9.169l7.534-4.693a24.66,24.66,0,0,1,8.1-3.167Q62.339.37,64.788,1.661Z" transform="translate(0 0)"/></g></svg>