<svg xmlns="http://www.w3.org/2000/svg" width="43.68" height="42" viewBox="0 0 43.68 42"><defs><style>.a{fill:#fff;}</style></defs><path class="a" d="M25.025,29.313v4.375a.834.834,0,0,1-.256.629.905.905,0,0,1-.654.246h-4.55a.9.9,0,0,1-.654-.246.834.834,0,0,1-.256-.629V29.313a.834.834,0,0,1,.256-.629.9.9,0,0,1,.654-.246h4.55a.905.905,0,0,1,.654.246A.834.834,0,0,1,25.025,29.313ZM32.3,15.75a6.727,6.727,0,0,1-.427,2.461A4.971,4.971,0,0,1,30.585,20.1a13.257,13.257,0,0,1-1.479,1.2q-.611.41-1.692.984-.91.492-1.322.766a3.547,3.547,0,0,0-.739.656,1.212,1.212,0,0,0-.327.793v.875a.834.834,0,0,1-.256.629.9.9,0,0,1-.654.246h-4.55A.9.9,0,0,1,18.911,26a.834.834,0,0,1-.256-.629V23.516a5.043,5.043,0,0,1,.3-1.764,4.849,4.849,0,0,1,.683-1.3,4.618,4.618,0,0,1,1.109-.971,11.765,11.765,0,0,1,1.166-.7q.441-.219,1.265-.574a11.168,11.168,0,0,0,2.133-1.176,1.613,1.613,0,0,0,.626-1.34A2.32,2.32,0,0,0,24.7,13.74a4.871,4.871,0,0,0-2.716-.807,4.765,4.765,0,0,0-2.7.738,12.754,12.754,0,0,0-2.275,2.27.851.851,0,0,1-.711.328.9.9,0,0,1-.54-.164l-3.071-2.242a.777.777,0,0,1-.341-.547.81.81,0,0,1,.142-.629,11.2,11.2,0,0,1,9.925-5.25,10.746,10.746,0,0,1,6.782,2.447A7.266,7.266,0,0,1,32.3,15.75ZM21.84,3.5A18.819,18.819,0,0,0,8.972,8.627,17.646,17.646,0,0,0,5.09,14.205a16.643,16.643,0,0,0,0,13.59,17.646,17.646,0,0,0,3.882,5.578A18.819,18.819,0,0,0,21.84,38.5a18.819,18.819,0,0,0,12.868-5.127,17.646,17.646,0,0,0,3.882-5.578,16.643,16.643,0,0,0,0-13.59,17.646,17.646,0,0,0-3.882-5.578A18.819,18.819,0,0,0,21.84,3.5ZM43.68,21a19.94,19.94,0,0,1-2.929,10.541A21.343,21.343,0,0,1,32.8,39.184,22.025,22.025,0,0,1,21.84,42a22.025,22.025,0,0,1-10.963-2.816,21.343,21.343,0,0,1-7.948-7.643A19.94,19.94,0,0,1,0,21,19.94,19.94,0,0,1,2.929,10.459a21.343,21.343,0,0,1,7.948-7.643A22.025,22.025,0,0,1,21.84,0,22.025,22.025,0,0,1,32.8,2.816a21.343,21.343,0,0,1,7.948,7.643A19.94,19.94,0,0,1,43.68,21Z" transform="translate(0 0)"/></svg>