<svg xmlns="http://www.w3.org/2000/svg" width="28" height="26" viewBox="0 0 28 26"><defs><style>.a{fill:#9a9ca3;fill-rule:evenodd;}</style></defs><g transform="translate(-19.2 -19.2)"><path class="a" d="M38.252,38.52A12.22,12.22,0,0,1,30.9,40.932c-6.463,0-11.7-4.865-11.7-10.866S24.439,19.2,30.9,19.2s11.7,4.865,11.7,10.866a10.354,10.354,0,0,1-2.6,6.826,1.242,1.242,0,0,1,.14.112l6.687,6.209a1.106,1.106,0,0,1,0,1.646,1.323,1.323,0,0,1-1.773,0L38.373,38.65A1.2,1.2,0,0,1,38.252,38.52ZM40.1,30.066c0,4.715-4.116,8.537-9.194,8.537s-9.194-3.822-9.194-8.537,4.116-8.537,9.194-8.537S40.1,25.351,40.1,30.066Z"/></g></svg>