<svg xmlns="http://www.w3.org/2000/svg" width="29.153" height="27.586" viewBox="0 0 29.153 27.586"><defs><style>.a{fill:#212121;fill-rule:evenodd;}</style></defs><path class="a" d="M39.011,117.269H28.542c-3.65,0-6.609,2.24-6.609,5a1.314,1.314,0,0,0,1.254,1.232,85.137,85.137,0,0,0,21.178,0,1.314,1.314,0,0,0,1.254-1.232C45.62,119.509,42.661,117.269,39.011,117.269ZM28.542,115.2c-5.16,0-9.342,3.166-9.342,7.072,0,1.611,1.441,3.01,3.54,3.273a88.733,88.733,0,0,0,22.072,0c2.1-.263,3.54-1.662,3.54-3.273,0-3.906-4.183-7.072-9.342-7.072Z" transform="translate(-19.2 -98.649)"/><path class="a" d="M50.733,6.9c0,2.666,2.855,4.828,6.377,4.828S63.487,9.563,63.487,6.9,60.632,2.069,57.11,2.069,50.733,4.23,50.733,6.9ZM57.11,0C52.079,0,48,3.088,48,6.9s4.079,6.9,9.11,6.9,9.11-3.088,9.11-6.9S62.142,0,57.11,0Z" transform="translate(-42.534)"/></svg>