<svg xmlns="http://www.w3.org/2000/svg" width="46.184" height="42" viewBox="0 0 46.184 42"><defs><style>.a{fill:#fff;}</style></defs><path class="a" d="M39.252,31.383A14.152,14.152,0,0,0,37,25.348a6.5,6.5,0,0,0-4.755-2.777,12.265,12.265,0,0,1-4.111,2.707,13.537,13.537,0,0,1-10.077,0,12.265,12.265,0,0,1-4.111-2.707,6.5,6.5,0,0,0-4.755,2.777,14.152,14.152,0,0,0-2.255,6.035,19.31,19.31,0,0,0,6.984,5.566A20.844,20.844,0,0,0,23.092,39a20.844,20.844,0,0,0,9.175-2.051A19.31,19.31,0,0,0,39.252,31.383ZM32.989,15a8.3,8.3,0,0,0-2.9-6.363,10.034,10.034,0,0,0-7-2.637,10.034,10.034,0,0,0-7,2.637,8.432,8.432,0,0,0,0,12.727,10.034,10.034,0,0,0,7,2.637,10.034,10.034,0,0,0,7-2.637A8.3,8.3,0,0,0,32.989,15Zm13.2,6a18.864,18.864,0,0,1-1.83,8.145,21.359,21.359,0,0,1-4.91,6.7,23.194,23.194,0,0,1-7.358,4.488,25.071,25.071,0,0,1-17.963,0,23.471,23.471,0,0,1-7.371-4.477,21.088,21.088,0,0,1-4.923-6.7,19.093,19.093,0,0,1,0-16.313,21.088,21.088,0,0,1,4.923-6.7,23.471,23.471,0,0,1,7.371-4.477,25,25,0,0,1,17.938,0,23.471,23.471,0,0,1,7.371,4.477,21.088,21.088,0,0,1,4.923,6.7A18.94,18.94,0,0,1,46.184,21Z" transform="translate(0)"/></svg>